HIERARCHY
ROOT Hips
{
    OFFSET 0.000000 0.000000 0.000000
    CHANNELS 6 Xposition Yposition Zposition Zrotation Xrotation Yrotation
    JOINT Spine
    {
        OFFSET -0.000000 7.897928 0.000000
        CHANNELS 3 Zrotation Xrotation Yrotation
        JOINT Spine1
        {
            OFFSET -0.000000 22.881742 0.000000
            CHANNELS 3 Zrotation Xrotation Yrotation
            JOINT Neck
            {
                OFFSET -0.000000 22.787771 2.071616
                CHANNELS 3 Zrotation Xrotation Yrotation
                JOINT Head
                {
                    OFFSET -0.000000 13.484266 -1.926324
                    CHANNELS 3 Zrotation Xrotation Yrotation
                    End Site
                    {
                        OFFSET -0.000000 24.079046 0.000000
                    }
                }
            }
            JOINT LeftShoulder
            {
                OFFSET 3.854963 21.096247 -0.110468
                CHANNELS 3 Zrotation Xrotation Yrotation
                JOINT LeftArm
                {
                    OFFSET 10.572188 0.000000 0.000000
                    CHANNELS 3 Zrotation Xrotation Yrotation
                    JOINT LeftForeArm
                    {
                        OFFSET 34.932854 0.000000 0.000000
                        CHANNELS 3 Zrotation Xrotation Yrotation
                        JOINT LeftHand
                        {
                            OFFSET 23.279285 0.000000 0.000000
                            CHANNELS 3 Zrotation Xrotation Yrotation
                            End Site
                            {
                                OFFSET 14.447429 0.000000 0.000000
                            }
                        }
                    }
                }
            }
            JOINT RightShoulder
            {
                OFFSET -3.825334 21.096247 -0.110468
                CHANNELS 3 Zrotation Xrotation Yrotation
                JOINT RightArm
                {
                    OFFSET -10.572188 0.000000 0.000000
                    CHANNELS 3 Zrotation Xrotation Yrotation
                    JOINT RightForeArm
                    {
                        OFFSET -34.932854 0.000000 0.000000
                        CHANNELS 3 Zrotation Xrotation Yrotation
                        JOINT RightHand
                        {
                            OFFSET -23.279285 0.000000 0.000000
                            CHANNELS 3 Zrotation Xrotation Yrotation
                            End Site
                            {
                                OFFSET -14.447429 0.000000 0.000000
                            }
                        }
                    }
                }
            }
        }
    }
    JOINT LeftUpLeg
    {
        OFFSET 9.631618 0.000000 0.000000
        CHANNELS 3 Zrotation Xrotation Yrotation
        JOINT LeftLeg
        {
            OFFSET -0.000000 -35.385456 0.000000
            CHANNELS 3 Zrotation Xrotation Yrotation
            JOINT LeftFoot
            {
                OFFSET -0.000000 -43.284000 0.000000
                CHANNELS 3 Zrotation Xrotation Yrotation
                JOINT LeftToeBase
                {
                    OFFSET -0.000000 -6.260552 14.447429
                    CHANNELS 3 Zrotation Xrotation Yrotation
                    End Site
                    {
                        OFFSET -0.000000 0.000000 3.852648
                    }
                }
            }
        }
    }
    JOINT RightUpLeg
    {
        OFFSET -9.631618 0.000000 0.000000
        CHANNELS 3 Zrotation Xrotation Yrotation
        JOINT RightLeg
        {
            OFFSET -0.000000 -35.385456 0.000000
            CHANNELS 3 Zrotation Xrotation Yrotation
            JOINT RightFoot
            {
                OFFSET -0.000000 -43.284000 0.000000
                CHANNELS 3 Zrotation Xrotation Yrotation
                JOINT RightToeBase
                {
                    OFFSET -0.000000 -6.260552 14.447429
                    CHANNELS 3 Zrotation Xrotation Yrotation
                    End Site
                    {
                        OFFSET -0.000000 0.000000 3.852648
                    }
                }
            }
        }
    }
}
MOTION
Frames:    9
Frame Time:    0.008333
53.870213    87.229797    22.698668    -3.759793    -1.039630    85.865578    -2.701656    2.288350    -6.778175    0.750357    -0.707832    -6.827492    -11.792135    21.155510    -3.615480    22.482740    -9.449662    0.747901    24.742527    -3.444018    2.986439    -9.214044    -10.826259    -12.913106    43.639149    -33.321144    -54.309669    41.593575    -6.981643    11.812831    -1.323592    13.105502    10.968642    45.723274    40.119442    18.158388    -9.423036    -7.640301    28.383659    -18.860708    -7.027578    10.630786    11.977382    -5.295107    4.863725    -4.996017    14.035297    2.151916    -6.832156    -11.122560    14.066660    0.000000    0.000000    0.000000    -6.161801    -11.934765    -2.678686    6.178884    19.934866    -2.984889    2.090288    -9.720977    -8.080193    0.000000    0.000000    0.000000    
53.855087    87.267807    22.645248    -3.762471    -0.790474    85.241646    -2.739116    2.295125    -6.668861    0.741134    -0.556021    -6.720129    -12.346958    20.527788    -3.556518    22.934292    -8.790190    0.834298    24.565758    -3.773158    3.502899    -9.072635    -12.976630    -12.314609    38.408173    -32.964649    -52.426399    42.106987    -9.810668    13.548965    -1.456073    13.119217    10.922247    45.718563    39.606583    18.491455    -9.488068    -7.744744    28.644863    -19.393808    -7.147816    10.656448    11.707117    -5.036320    4.891406    -5.097622    13.811081    2.616264    -6.864657    -10.987958    14.221088    0.000000    0.000000    0.000000    -6.358910    -12.189895    -2.352774    6.149620    20.077381    -2.855330    2.081619    -9.600745    -7.913137    0.000000    0.000000    0.000000    
53.838585    87.303261    22.567631    -3.740021    -0.463457    84.472153    -2.794561    2.381173    -6.465086    0.575111    -0.567573    -6.520306    -11.896941    20.703182    -3.363196    22.097616    -9.436236    0.967554    24.598675    -4.143641    3.824445    -8.966727    -14.674786    -11.426790    33.812473    -32.964546    -50.139645    43.442059    -13.079200    13.363557    -1.366152    13.231923    10.908623    45.533264    39.322586    18.739288    -9.599483    -7.893181    28.851591    -19.766062    -7.265256    10.542385    11.315411    -4.677510    4.957795    -5.162530    13.494480    3.178590    -6.941804    -10.844952    14.361197    0.000000    0.000000    0.000000    -6.646456    -12.483727    -1.864575    6.173525    20.249264    -2.716980    2.110206    -9.505728    -7.791055    0.000000    0.000000    0.000000    
53.856735    87.336708    22.515081    -3.645444    -0.192310    83.699059    -2.897008    2.516464    -6.253629    0.549760    -0.569918    -6.314534    -11.856697    20.546335    -3.147953    21.765898    -9.462128    1.140444    24.737459    -4.637841    4.194424    -9.122607    -15.574639    -10.742735    31.462822    -33.006737    -46.359463    44.509594    -15.946523    12.057469    -1.360776    13.265470    10.850871    45.331104    39.083279    19.006603    -9.491500    -7.905482    29.023905    -20.214916    -7.321772    10.482140    11.000493    -4.167749    4.894361    -5.287536    13.071084    3.816020    -6.984657    -10.704983    14.531873    0.000000    0.000000    0.000000    -6.832990    -12.626141    -1.290278    6.171345    20.317995    -2.651859    2.136703    -9.419501    -7.656193    0.000000    0.000000    0.000000    
53.887344    87.368576    22.468140    -3.538538    0.073305    82.918312    -3.111936    2.610117    -5.984508    0.638830    -0.466438    -6.052808    -11.814554    20.387785    -3.046379    21.571445    -9.522978    1.232785    25.022980    -5.306627    4.551513    -9.306871    -16.270109    -10.072871    30.587885    -31.994431    -42.064442    45.093845    -17.290613    9.959632    -1.334481    13.219666    10.729989    45.257019    39.251499    19.060526    -10.120419    -8.161552    29.101330    -19.509836    -7.308086    10.284117    10.693766    -3.658764    5.060016    -5.379498    12.740218    3.760163    -6.967683    -10.691636    15.173664    0.000000    0.000000    0.000000    -7.000795    -12.719501    -0.829392    6.177886    20.256620    -2.538945    2.031807    -9.266104    -7.587590    0.000000    0.000000    0.000000    
53.921635    87.399277    22.409424    -3.426252    0.331590    82.114876    -3.431240    2.736513    -5.641043    0.902373    -0.446195    -5.719485    -11.967653    20.052324    -3.068463    21.626659    -9.141869    1.185364    25.223572    -6.044636    4.973395    -9.815905    -16.909027    -9.748136    31.157339    -30.327263    -37.915245    45.359356    -17.114517    8.283269    -1.325599    13.189796    10.552176    44.936131    39.226933    19.227402    -9.851537    -8.211543    29.067993    -19.561142    -7.470763    10.487417    10.368558    -3.092697    5.044162    -5.503242    12.292952    3.862574    -6.887533    -10.654033    15.860025    0.000000    0.000000    0.000000    -7.177098    -12.815110    -0.326702    6.131898    20.270428    -2.315718    2.087143    -9.198265    -7.472714    0.000000    0.000000    0.000000    
53.970329    87.437134    22.335672    -3.314659    0.568902    81.371361    -3.677927    2.843828    -5.335697    1.079169    -0.502767    -5.422267    -11.580805    20.438025    -2.837819    20.909803    -9.812749    1.352948    25.325342    -6.649622    5.432577    -10.355454    -17.433449    -9.606437    32.414310    -28.281069    -34.620811    46.698792    -15.240054    8.489038    -1.286711    13.188721    10.586260    44.891525    39.423843    19.047060    -10.225730    -8.439715    28.929518    -19.167738    -7.563093    10.395219    10.010366    -2.519025    4.837810    -5.586915    11.710026    5.026758    -6.983828    -10.408436    15.622060    0.000000    0.000000    0.000000    -7.363918    -12.862385    0.004866    6.057780    20.258612    -1.963701    2.130353    -9.113103    -7.394475    0.000000    0.000000    0.000000    
54.047054    87.485214    22.278728    -3.129215    0.728452    80.724060    -3.923116    3.012707    -5.020977    1.321551    -0.581009    -5.117470    -11.431493    20.373955    -2.804373    20.537962    -9.596999    1.276792    25.155825    -6.983267    5.785455    -10.834065    -18.205193    -9.524529    33.571465    -26.626150    -33.140327    46.852928    -12.911319    9.906509    -1.241920    13.180561    10.608134    44.833817    39.506622    18.786695    -10.031856    -8.614872    28.833506    -19.508429    -7.826061    10.377481    9.732706    -1.908082    4.831268    -5.633639    11.246117    5.456081    -7.055276    -10.268819    15.803087    0.000000    0.000000    0.000000    -7.455175    -12.690295    0.347858    5.938391    20.057463    -1.749705    2.210623    -8.973928    -7.245193    0.000000    0.000000    0.000000    
54.132454    87.521347    22.212072    -3.002785    0.838409    80.200386    -4.168040    3.099061    -4.687426    1.671506    -0.689057    -4.790145    -11.837261    20.426573    -2.891418    20.956980    -9.209780    1.191587    24.657518    -7.050935    5.933405    -11.296824    -19.022369    -9.476256    34.345932    -26.458414    -33.906342    46.365589    -11.249159    12.326545    -1.248108    13.243362    10.540845    44.754967    39.598976    18.521465    -9.796124    -8.726179    28.646296    -19.652103    -8.033570    10.407973    9.497998    -1.354148    4.524196    -5.718238    10.720810    6.089126    -7.059262    -10.147429    15.973392    0.000000    0.000000    0.000000    -7.504918    -12.506373    0.543358    5.768793    19.810307    -1.540050    2.315438    -8.861954    -7.062945    0.000000    0.000000    0.000000    
